<svg width="143" height="93" viewBox="0 0 143 93" fill="none" xmlns="http://www.w3.org/2000/svg">
<path d="M46.968 70.3037C49.4213 70.3037 51.3738 71.3707 52.8245 73.5039C52.9951 73.7386 53.0804 73.9952 53.0804 74.2725C53.0802 74.6349 52.9416 74.9552 52.6643 75.2324C52.3871 75.5095 52.0668 75.6484 51.7044 75.6484C51.1925 75.6484 50.808 75.4344 50.552 75.0078C49.6134 73.6854 48.4186 73.0244 46.968 73.0244C45.3896 73.0246 44.1094 73.8032 43.1282 75.3604C42.1471 76.9176 41.6566 78.9121 41.6565 81.3438C41.6565 83.7757 42.1469 85.7708 43.1282 87.3281C44.1094 88.8853 45.3896 89.6639 46.968 89.6641C48.4613 89.6641 49.6778 88.928 50.6165 87.4561C50.8724 87.0083 51.2562 86.7844 51.7679 86.7842C52.1304 86.7842 52.4505 86.923 52.7278 87.2002C53.0051 87.4562 53.1438 87.7762 53.1438 88.1602C53.1438 88.4374 53.0695 88.6832 52.9202 88.8965C51.4482 91.2215 49.4639 92.3838 46.968 92.3838C44.4509 92.3837 42.413 91.3594 40.8557 89.3115C39.3201 87.2423 38.552 84.5861 38.552 81.3438C38.5521 78.1015 39.32 75.4561 40.8557 73.4082C42.413 71.339 44.4509 70.3038 46.968 70.3037Z" fill="url(#paint0_linear_121_53)"/>
<path d="M67.7483 70.4961C68.1748 70.4962 68.5377 70.6458 68.8362 70.9443C69.1347 71.243 69.2835 71.6057 69.2835 72.0322V90.624C69.2835 91.0293 69.1348 91.392 68.8362 91.7119C68.5377 92.0104 68.1748 92.1601 67.7483 92.1602C67.3432 92.1601 66.9803 92.0104 66.6604 91.7119C66.3619 91.392 66.2122 91.0293 66.2122 90.624V82.3682H57.9241V90.624C57.9241 91.0507 57.7745 91.4133 57.4759 91.7119C57.1773 92.0104 56.8254 92.1601 56.4202 92.1602C55.9937 92.1601 55.6309 92.0104 55.3323 91.7119C55.0337 91.4133 54.8841 91.0506 54.8841 90.624V72.0322C54.8841 71.6056 55.0337 71.243 55.3323 70.9443C55.6309 70.6457 55.9828 70.4962 56.388 70.4961C56.8146 70.4961 57.1772 70.6458 57.4759 70.9443C57.7744 71.243 57.9241 71.6056 57.9241 72.0322V79.6797H66.2122V72.0322C66.2122 71.6056 66.3619 71.243 66.6604 70.9443C66.9803 70.6458 67.3431 70.4962 67.7483 70.4961Z" fill="url(#paint1_linear_121_53)"/>
<path fill-rule="evenodd" clip-rule="evenodd" d="M78.468 70.4961C79.0013 70.4961 79.4819 70.6557 79.9085 70.9756C80.3351 71.2956 80.6224 71.7018 80.7718 72.1924L86.1165 90.208C86.1805 90.336 86.2122 90.4856 86.2122 90.6562C86.2121 91.0615 86.0626 91.4133 85.7639 91.7119C85.4867 92.0104 85.1348 92.1601 84.7083 92.1602C84.3672 92.1601 84.0577 92.0639 83.7805 91.8721C83.5247 91.6588 83.3532 91.3921 83.2679 91.0723L82.2766 87.4883H74.6604L73.7005 91.0723C73.6151 91.3707 73.4336 91.6266 73.1565 91.8398C72.9006 92.0531 72.6013 92.1602 72.26 92.1602C71.8549 92.16 71.5029 92.0104 71.2044 91.7119C70.9058 91.4133 70.7561 91.0506 70.7561 90.624C70.7561 90.5174 70.7879 90.3786 70.8518 90.208L76.1966 72.1924C76.3459 71.7018 76.6234 71.2956 77.0286 70.9756C77.455 70.6559 77.9351 70.4962 78.468 70.4961ZM75.3958 84.7998H81.5725L78.468 73.4717L75.3958 84.7998Z" fill="url(#paint2_linear_121_53)"/>
<path fill-rule="evenodd" clip-rule="evenodd" d="M94.6106 70.6562C96.5089 70.6563 98.0022 71.2747 99.0901 72.5117C100.178 73.749 100.722 75.3064 100.722 77.1836C100.722 79.0609 100.178 80.6191 99.0901 81.8564C98.0022 83.0934 96.5089 83.7118 94.6106 83.7119H90.7698V90.624C90.7698 91.0506 90.6211 91.4133 90.3225 91.7119C90.0239 92.0105 89.6712 92.1602 89.2659 92.1602C88.8395 92.16 88.4765 92.0104 88.178 91.7119C87.8795 91.4133 87.7298 91.0505 87.7298 90.624V72.2881C87.7298 71.2002 88.2748 70.6563 89.3626 70.6562H94.6106ZM90.7698 81.0244H94.2581C95.282 81.0244 96.0924 80.6716 96.6897 79.9678C97.2871 79.2638 97.5862 78.3356 97.5862 77.1836C97.5861 76.0318 97.287 75.1043 96.6897 74.4004C96.0924 73.6965 95.282 73.3438 94.2581 73.3438H90.7698V81.0244Z" fill="url(#paint3_linear_121_53)"/>
<path d="M112.85 70.6562C113.212 70.6562 113.533 70.7951 113.81 71.0723C114.087 71.3283 114.226 71.6373 114.226 72C114.226 72.3627 114.087 72.6826 113.81 72.96C113.533 73.2158 113.212 73.3438 112.85 73.3438H109.074V90.624C109.074 91.0507 108.925 91.4133 108.626 91.7119C108.328 92.0104 107.976 92.1601 107.571 92.1602C107.144 92.1601 106.781 92.0104 106.483 91.7119C106.184 91.4133 106.034 91.0506 106.034 90.624V73.3438H102.258C101.896 73.3437 101.575 73.2159 101.298 72.96C101.042 72.6827 100.914 72.3626 100.914 72C100.914 71.6375 101.042 71.3282 101.298 71.0723C101.575 70.795 101.896 70.6563 102.258 70.6562H112.85Z" fill="url(#paint4_linear_121_53)"/>
<path fill-rule="evenodd" clip-rule="evenodd" d="M136.272 70.6562C138.064 70.6563 139.514 71.2537 140.623 72.4482C141.754 73.6216 142.32 75.1897 142.32 77.1523C142.32 78.7521 141.968 80.064 141.264 81.0879C140.581 82.1118 139.674 82.7944 138.543 83.1357L142.192 89.9199C142.32 90.1972 142.384 90.4638 142.384 90.7197C142.384 91.1037 142.234 91.4455 141.936 91.7441C141.659 92.0214 141.317 92.1602 140.911 92.1602C140.272 92.16 139.813 91.8826 139.535 91.3281L135.535 83.7119H132.367V90.624C132.367 91.0505 132.219 91.4133 131.92 91.7119C131.622 92.0105 131.269 92.1602 130.864 92.1602C130.437 92.1601 130.074 92.0105 129.776 91.7119C129.477 91.4133 129.327 91.0506 129.327 90.624V72.2881C129.327 71.2003 129.872 70.6565 130.959 70.6562H136.272ZM132.367 81.0244H135.856C136.88 81.0244 137.69 80.6717 138.287 79.9678C138.885 79.2638 139.184 78.3356 139.184 77.1836C139.184 76.0318 138.885 75.1043 138.287 74.4004C137.69 73.6965 136.88 73.3438 135.856 73.3438H132.367V81.0244Z" fill="url(#paint5_linear_121_53)"/>
<path d="M125.845 70.6562C126.208 70.6562 126.518 70.795 126.774 71.0723C127.051 71.3282 127.19 71.6375 127.19 72C127.19 72.3626 127.051 72.6827 126.774 72.96C126.518 73.2159 126.208 73.3438 125.845 73.3438H118.741V79.7764H125.621C125.939 79.7764 126.216 79.8823 126.451 80.0947L126.647 80.29C126.859 80.5234 126.965 80.7892 126.965 81.0879C126.965 81.4719 126.826 81.8027 126.549 82.0801C126.293 82.3358 125.984 82.4639 125.621 82.4639H118.741V89.3115H125.845C126.208 89.3115 126.518 89.4504 126.774 89.7275C127.051 89.9835 127.19 90.2936 127.19 90.6562C127.19 91.0188 127.051 91.3389 126.774 91.6162C126.518 91.8721 126.208 92 125.845 92H117.333C116.246 91.9998 115.701 91.4559 115.701 90.3682V72.2881C115.701 71.2002 116.246 70.6564 117.333 70.6562H125.845Z" fill="url(#paint6_linear_121_53)"/>
<path d="M15.0247 12C17.0242 12.0003 18.1914 13.0001 18.5247 13.5C25.0248 25.0001 38.5247 49 40.5247 53C43.5245 45.9997 42.5247 22.9999 42.5247 18.5C42.5247 14.9005 38.8583 14.0003 37.0247 14V12H52.0247V13.5C49.5247 13 46.0247 17 46.0247 22.5C46.0247 28.0001 44.0247 52.5 44.0247 55.5C44.0247 58.5 49.5247 61.5 55.0247 61.5C60.5251 61.4986 73.5247 46.9997 75.0247 41.5C76.2245 37.1003 73.1914 31.6669 71.5247 29.5C71.6916 28.9999 72.7251 28 75.5247 28C78.324 28.0013 79.0247 35.0003 79.0247 38.5C81.3581 35.3332 86.1247 28.8 86.5247 28C87.0248 27.0003 88.5248 27.0001 89.5247 28C90.3241 28.7999 90.1913 30 90.0247 30.5L79.5247 41C79.5247 45 81.5247 48.7272 83.0247 49C88.5244 49.9983 94.1443 33.1588 95.5247 28.5H93.0247C92.5247 28.5 92.0247 28 92.0247 27C92.0247 26.2 92.6913 26 93.0247 26H96.5247C98.0247 22.9999 101.275 17.0001 101.525 16.5C102.024 15.5027 104.015 15.5 104.025 15.5C105.017 15.5008 104.531 16.9801 104.525 17L101.525 25.5H108.025C108.525 25.5001 109.525 25.6059 109.525 26C109.525 27.9989 108.525 28 108.025 28H100.525C97.358 35.3333 92.3248 49.9999 97.5247 50C104.024 49.9986 111.025 32.5006 109.525 39.5C108.025 46.4996 100.525 52.4994 95.5247 52.5C91.5247 52.5 90.5247 47.8333 90.5247 45.5C88.8582 47.6665 84.7246 51.9993 81.5247 52C78.3248 52 76.1914 47.6667 75.5247 45.5C75.5146 45.5148 68.3567 56.0011 66.0247 58.5C63.6914 60.9999 57.2244 65.9996 50.0247 66C42.8251 66 37.3583 61.0001 35.5247 58.5L13.0247 22.5C13.0247 24.0005 13.5247 57 13.5247 58.5C13.5247 60.5 14.5247 61.5 15.5247 61.5H36.0247C36.3582 61.667 37.0247 62.2005 37.0247 63C37.0247 63.7994 36.6915 64.3329 36.5247 64.5H8.02469C7.00846 64.5 5.30468 64.9601 4.31082 66.5H33.0247V67.5H3.83035C3.72668 67.8042 3.64616 68.1366 3.59402 68.5H30.0247V69.5H3.52469L3.53055 69.8691C3.5385 70.0856 3.55522 70.2958 3.57645 70.5H33.0247V71.5H3.73855C3.81841 71.8555 3.9184 72.1886 4.03348 72.5H31.0247V73.5H4.49051C5.27003 74.9079 6.34512 75.7087 7.02469 76H34.5247C34.5247 77.1996 33.1916 78.1664 32.5247 78.5H6.02469C2.02474 78.5 0.0247157 74 0.0246877 72C0.0246877 70 -0.475281 64.5 3.02469 63C6.52413 61.4998 7.52472 57.9998 8.02469 55.5C8.52466 52.9992 8.52469 24.5 8.52469 19.5C8.52469 15.5005 4.19163 14.1669 2.02469 14V12H15.0247Z" fill="url(#paint7_linear_121_53)"/>
<path d="M119.024 56.5C117.024 58.0001 113.024 62.1908 113.024 66.5C110.524 63.4999 113.024 55.8333 113.024 52H119.024V56.5Z" fill="url(#paint8_linear_121_53)"/>
<path fill-rule="evenodd" clip-rule="evenodd" d="M62.9944 26.502C64.7607 26.3981 66.0918 26.6981 67.054 27.3174C68.0252 27.9426 68.5644 28.8563 68.8098 29.8564C69.2903 31.8157 68.6644 34.1659 67.9807 35.7041L67.9622 35.7451L67.9368 35.7832C66.8312 37.3989 64.8249 39.8108 62.3792 41.8242C60.0493 43.7422 57.2479 45.3568 54.4016 45.4902C54.2143 46.2145 54.092 47.2784 54.3782 48.2324C54.5418 48.777 54.8359 49.2794 55.3235 49.6748C55.8126 50.0712 56.5293 50.3872 57.5794 50.5039C58.3474 50.5891 59.2929 50.3576 60.3557 49.8643C61.4101 49.3748 62.5318 48.6499 63.6341 47.8145C65.8386 46.1436 67.9149 44.0682 69.1487 42.6699L70.4212 41.2285L70.012 43.1074C69.5793 45.0968 68.3681 48.0329 66.1263 50.4297C63.8708 52.8408 60.568 54.7075 56.0013 54.5C53.7 54.3954 52.0143 53.6506 50.8391 52.4648C49.6717 51.2866 49.055 49.7202 48.7923 48.0537C48.2695 44.7358 49.1232 40.8682 50.054 38.3291C50.7388 36.4463 52.1944 33.6142 54.3509 31.1934C56.5063 28.7739 59.4115 26.7128 62.9944 26.502ZM62.5237 29C61.3265 29.0001 60.266 29.673 59.3626 30.6338C58.4549 31.5993 57.6474 32.9152 56.9495 34.3428C55.552 37.2014 54.5409 40.6172 54.0354 42.8916L53.8382 43.7812L54.6946 43.4697C59.1769 41.8398 61.7042 39.3804 62.4397 38.2773L62.4436 38.2715C63.3716 36.8373 64.5344 34.6535 64.9495 32.7969C65.1544 31.8802 65.2002 30.9415 64.8391 30.209C64.447 29.4143 63.6526 29 62.5237 29Z" fill="url(#paint9_linear_121_53)"/>
<path d="M119.024 51H113.024V31H119.524L119.024 51Z" fill="url(#paint10_linear_121_53)"/>
<path d="M120.024 6.5L122.524 7L123.024 26L121.524 27L121.024 9L120.024 8.5V29.5H112.524C112.124 27.4998 113.357 12.8333 114.024 6H119.024L120.024 6.5Z" fill="url(#paint11_linear_121_53)"/>
<path d="M116.524 0C119.524 2.49016e-05 119.024 3.66667 119.024 4.5H114.024C114.024 2.33341 114.024 0.000163497 116.524 0Z" fill="url(#paint12_linear_121_53)"/>
<defs>
<linearGradient id="paint0_linear_121_53" x1="71.192" y1="0" x2="71.192" y2="92.3838" gradientUnits="userSpaceOnUse">
<stop stop-color="#DFB3A1"/>
<stop offset="1" stop-color="#B8785D"/>
</linearGradient>
<linearGradient id="paint1_linear_121_53" x1="71.192" y1="0" x2="71.192" y2="92.3838" gradientUnits="userSpaceOnUse">
<stop stop-color="#DFB3A1"/>
<stop offset="1" stop-color="#B8785D"/>
</linearGradient>
<linearGradient id="paint2_linear_121_53" x1="71.192" y1="0" x2="71.192" y2="92.3838" gradientUnits="userSpaceOnUse">
<stop stop-color="#DFB3A1"/>
<stop offset="1" stop-color="#B8785D"/>
</linearGradient>
<linearGradient id="paint3_linear_121_53" x1="71.192" y1="0" x2="71.192" y2="92.3838" gradientUnits="userSpaceOnUse">
<stop stop-color="#DFB3A1"/>
<stop offset="1" stop-color="#B8785D"/>
</linearGradient>
<linearGradient id="paint4_linear_121_53" x1="71.192" y1="0" x2="71.192" y2="92.3838" gradientUnits="userSpaceOnUse">
<stop stop-color="#DFB3A1"/>
<stop offset="1" stop-color="#B8785D"/>
</linearGradient>
<linearGradient id="paint5_linear_121_53" x1="71.192" y1="0" x2="71.192" y2="92.3838" gradientUnits="userSpaceOnUse">
<stop stop-color="#DFB3A1"/>
<stop offset="1" stop-color="#B8785D"/>
</linearGradient>
<linearGradient id="paint6_linear_121_53" x1="71.192" y1="0" x2="71.192" y2="92.3838" gradientUnits="userSpaceOnUse">
<stop stop-color="#DFB3A1"/>
<stop offset="1" stop-color="#B8785D"/>
</linearGradient>
<linearGradient id="paint7_linear_121_53" x1="71.192" y1="0" x2="71.192" y2="92.3838" gradientUnits="userSpaceOnUse">
<stop stop-color="#DFB3A1"/>
<stop offset="1" stop-color="#B8785D"/>
</linearGradient>
<linearGradient id="paint8_linear_121_53" x1="71.192" y1="0" x2="71.192" y2="92.3838" gradientUnits="userSpaceOnUse">
<stop stop-color="#DFB3A1"/>
<stop offset="1" stop-color="#B8785D"/>
</linearGradient>
<linearGradient id="paint9_linear_121_53" x1="71.192" y1="0" x2="71.192" y2="92.3838" gradientUnits="userSpaceOnUse">
<stop stop-color="#DFB3A1"/>
<stop offset="1" stop-color="#B8785D"/>
</linearGradient>
<linearGradient id="paint10_linear_121_53" x1="71.192" y1="0" x2="71.192" y2="92.3838" gradientUnits="userSpaceOnUse">
<stop stop-color="#DFB3A1"/>
<stop offset="1" stop-color="#B8785D"/>
</linearGradient>
<linearGradient id="paint11_linear_121_53" x1="71.192" y1="0" x2="71.192" y2="92.3838" gradientUnits="userSpaceOnUse">
<stop stop-color="#DFB3A1"/>
<stop offset="1" stop-color="#B8785D"/>
</linearGradient>
<linearGradient id="paint12_linear_121_53" x1="71.192" y1="0" x2="71.192" y2="92.3838" gradientUnits="userSpaceOnUse">
<stop stop-color="#DFB3A1"/>
<stop offset="1" stop-color="#B8785D"/>
</linearGradient>
</defs>
</svg>
